<svg xmlns="http://www.w3.org/2000/svg" viewBox="0 0 240 240"
     width="240" height="240" role="img" aria-labelledby="t">
  <title id="t">infographic</title>
  <g>
    <path d="M 120.0,14 A 106,106 0 0 0 120.0,226 L 120.0,176 A 56,56 0 0 1 120.0,64 Z" fill="#E7B8A7"/>
    <path d="M 120.0,14 A 106,106 0 0 1 120.0,226 L 120.0,176 A 56,56 0 0 0 120.0,64 Z" fill="#2B5A8B"/>
    <path d="M 120.0,64 A 56,56 0 0 0 120.0,176 Z" fill="#84432D"/>
    <path d="M 120.0,64 A 56,56 0 0 1 120.0,176 Z" fill="#A8C8EA"/>
    <circle cx="120.0" cy="120" r="106" fill="none" stroke="#F2EFE6" stroke-width="3.80"/>
    <circle cx="120.0" cy="120" r="56" fill="none" stroke="#F2EFE6" stroke-width="2.28"/>
    <line x1="120.0" y1="14" x2="120.0" y2="226" stroke="#F2EFE6" stroke-width="3.04" stroke-linecap="round"/>
  </g>
</svg>
